<?xml version="1.0" encoding="UTF-8" standalone="no"?>
<svg
   xmlns:dc="http://purl.org/dc/elements/1.1/"
   xmlns:cc="http://creativecommons.org/ns#"
   xmlns:rdf="http://www.w3.org/1999/02/22-rdf-syntax-ns#"
   xmlns:svg="http://www.w3.org/2000/svg"
   xmlns="http://www.w3.org/2000/svg"
   xmlns:sodipodi="http://sodipodi.sourceforge.net/DTD/sodipodi-0.dtd"
   xmlns:inkscape="http://www.inkscape.org/namespaces/inkscape"
   id="emoji"
   viewBox="0 0 72 72"
   version="1.1"
   sodipodi:docname="yellow_key.svg"
   inkscape:version="1.0.1 (3bc2e813f5, 2020-09-07)">
  <metadata
     id="metadata26">
    <rdf:RDF>
      <cc:Work
         rdf:about="">
        <dc:format>image/svg+xml</dc:format>
        <dc:type
           rdf:resource="http://purl.org/dc/dcmitype/StillImage" />
      </cc:Work>
    </rdf:RDF>
  </metadata>
  <defs
     id="defs24" />
  <sodipodi:namedview
     pagecolor="#ffffff"
     bordercolor="#666666"
     borderopacity="1"
     objecttolerance="10"
     gridtolerance="10"
     guidetolerance="10"
     inkscape:pageopacity="0"
     inkscape:pageshadow="2"
     inkscape:window-width="1278"
     inkscape:window-height="1414"
     id="namedview22"
     showgrid="false"
     inkscape:zoom="4.3359395"
     inkscape:cx="34.66171"
     inkscape:cy="13.152907"
     inkscape:window-x="3200"
     inkscape:window-y="24"
     inkscape:window-maximized="0"
     inkscape:current-layer="emoji" />
  <g
     id="color"
     transform="matrix(1.5804589,0,0,1.5804589,-20.894851,-21.115198)">
    <path
       fill="#f4aa41"
       stroke="none"
       d="m 33.5357,31.9911 c -1.4016,-4.2877 -0.2247,-9.41 3.4285,-13.0632 5.018,-5.018 12.8077,-5.3639 17.3989,-0.7727 4.5912,4.5912 4.2452,12.381 -0.7728,17.3989 -4.057,4.057 -10.4347,5.5131 -14.2685,2.5888"
       id="path2" />
    <polyline
       fill="#f4aa41"
       stroke="#f4aa41"
       stroke-linecap="round"
       stroke-linejoin="round"
       stroke-miterlimit="10"
       stroke-width="2"
       points="33.652,31.7364 31.2181,34.1872 14.6444,50.5142 14.6444,57.6603 22.0426,57.6603 22.0426,53.0835 27.0544,53.0835 27.0544,47.3024 32.04,47.3024 34.3913,44.9292 34.3913,40.6274 36.3618,40.6274 39.4524,37.5368"
       id="polyline4" />
    <polygon
       fill="#e27022"
       stroke="none"
       points="31.8977,35.8744 32.8505,36.8484 15.9847,53.3457 15.9857,51.4386 "
       id="polygon6" />
    <circle
       cx="48.5201"
       cy="23.998199"
       r="3.9521"
       fill="#e27022"
       stroke="none"
       id="circle8" />
  </g>
  <g
     id="hair" />
  <g
     id="skin" />
  <g
     id="skin-shadow" />
  <g
     id="line"
     transform="matrix(1.5804589,0,0,1.5804589,-20.894851,-21.115198)">
    <polyline
       fill="none"
       stroke="#000000"
       stroke-linecap="round"
       stroke-linejoin="round"
       stroke-miterlimit="10"
       stroke-width="2"
       points="30.735,34.6557 14.3026,50.6814 14.3026,57.9214 21.868,57.9214 21.868,53.2845 26.9929,53.2845 26.9929,47.4274 32.0913,47.4274 34.4957,45.023 34.4957,40.6647 36.5107,40.6647"
       id="polyline14" />
    <circle
       cx="48.5201"
       cy="23.998199"
       r="3.9521"
       fill="none"
       stroke="#000000"
       stroke-linecap="round"
       stroke-linejoin="round"
       stroke-miterlimit="10"
       stroke-width="2"
       id="circle16" />
    <path
       fill="none"
       stroke="#000000"
       stroke-linecap="round"
       stroke-linejoin="round"
       stroke-miterlimit="10"
       stroke-width="2"
       d="M 34.2256,31.1781 C 32.7958,26.9398 33.879,21.9572 37.406,18.4834 42.2506,13.7119 49.8714,13.594 54.4276,18.22 c 4.5562,4.626 4.3223,12.2441 -0.5223,17.0156 -3.9169,3.8577 -9.6484,4.6736 -14.1079,2.3998"
       id="path18" />
  </g>
</svg>
