<svg width="200mm" height="200mm" version="1.1" viewBox="0 0 200 200" xmlns="http://www.w3.org/2000/svg">
 <g stroke="#000">
  <path d="m255.76-94.845 52.385 88.724-52.385 88.724" fill="none" stroke-linecap="round" stroke-width="10"/>
  <path d="m151.09-64.677c-3.0183 13.752-15.965 18.118-27.375 18.162-13.198 0.98318-27.247-6.5754-27.166-18.261 1.0151-9.8662 10.02-16.28 27.285-16.272" fill="none" stroke-linecap="round" stroke-width="8"/>
  <path d="m128.45-63.324c3.0183-13.752 15.965-18.118 27.375-18.162 13.198-0.98317 27.247 6.5754 27.166 18.261-1.0151 9.8662-10.02 16.28-27.285 16.272" fill="none" stroke-linecap="round" stroke-width="8"/>
  <path transform="rotate(90)" d="m88.774-33.304a72 72 0 0 1-71.669-71.884" fill="none" stroke-linecap="round" stroke-linejoin="round" stroke-width="12" style="paint-order:stroke fill markers"/>
  <path d="m33.304 88.774s-0.0801 83.904-0.0801 83.904l22.367-35.9" fill="none" stroke-linecap="round" stroke-linejoin="round" stroke-width="12"/>
  <path d="m33.224 172.68-22.513-36.151" fill="none" stroke-linecap="round" stroke-linejoin="round" stroke-width="12"/>
  <path d="m116.65 157.43s-6e-3 -83.539-6e-3 -83.539" fill="none" stroke-linecap="round" stroke-linejoin="round" stroke-width=".02"/>
  <path d="m174.8 17.1-69.616 5e-3" fill="none" stroke-linecap="round" stroke-linejoin="round" stroke-width="12"/>
  <path d="m0.04437 199.98 199.94-199.94" fill="none" stroke-width=".098983"/>
  <path d="m0.04442 0.03671 199.94 199.94" fill="none" stroke-width=".098983"/>
  <path d="m181.28 115.66-144.22 6e-3" fill="none" stroke-linecap="round" stroke-linejoin="round" stroke-width=".026278"/>
  <path d="m116.64 50.079s6e-3 83.539 6e-3 83.539" fill="none" stroke-linecap="round" stroke-linejoin="round" stroke-width=".05"/>
  <path d="m52.007 91.85 144.22-6e-3" fill="none" stroke-linecap="round" stroke-linejoin="round" stroke-width=".026278"/>
  <rect x="81.671" y="87.403" width="63.265" height="63.265" ry="7.465" fill="none" stroke-linecap="round" stroke-linejoin="round" stroke-width="8.64" style="paint-order:stroke fill markers"/>
  <rect transform="rotate(10)" x="120.26" y="39.209" width="63.265" height="63.265" ry="7.465" fill="none" stroke-linecap="round" stroke-linejoin="round" stroke-width="8.64" style="paint-order:stroke fill markers"/>
  <path d="m55.552 179.48 143.98-143.98" fill="none" stroke-width=".022152"/>
  <rect x="86.095" y="91.847" width="54.363" height="54.566" ry="12.033" fill="#fff" stroke-linecap="round" stroke-linejoin="round" stroke-width=".031353" style="paint-order:stroke fill markers"/>
  <path d="m55.551 35.495 143.98 143.98" fill="none" stroke-width=".022152"/>
 </g>
</svg>
