<svg width="200mm" height="200mm" version="1.1" viewBox="0 0 200 200" xmlns="http://www.w3.org/2000/svg">
 <g fill="none" stroke="#000">
  <path d="m246.53-10.952 55.031 93.204-55.031 93.204" stroke-linecap="round" stroke-width="12"/>
  <path d="m-174.16 11.558c-3.2684 17.562-17.288 23.137-29.643 23.194-14.292 1.2556-29.504-8.3972-29.417-23.32 1.0992-12.6 10.85-20.791 29.546-20.78" stroke-linecap="round" stroke-width="8"/>
  <path d="m-198.68 13.961c3.2684-17.562 17.288-23.137 29.643-23.193 14.292-1.2556 29.504 8.3972 29.417 23.32-1.0992 12.6-10.85 20.791-29.546 20.78" stroke-linecap="round" stroke-width="8"/>
  <path d="m-213.3 141.25-26.925 47.598" stroke-linecap="round" stroke-width="8"/>
  <ellipse transform="rotate(75)" cx="58.694" cy="223.36" rx="27.317" ry="26.743" stroke-linecap="round" stroke-width="8"/>
  <ellipse transform="matrix(.25882 -.96593 -.96593 -.25882 0 0)" cx="-32.669" cy="-132.27" rx="39.336" ry="38.51" stroke-linecap="round" stroke-width="12"/>
  <path d="m119.31 65.79-63.842 113.11" stroke-linecap="round" stroke-width=".02"/>
  <path d="m100 100s-41.318 73.205-41.318 73.205" stroke-linecap="round" stroke-width="12"/>
  <path d="m199.99 0.013535s-199.97 199.97-199.97 199.97" stroke-width=".02"/>
  <path d="m199.99 199.99-199.97-199.97" stroke-width=".02"/>
 </g>
</svg>
